#define -_width 16
#define -_height 16
static char -_bits[] = {
  0x9bf219b0, 0x9bf219b0, 0x9bf219b0, 0x9bf219b0, 0x9bf219b0, 0x9bf219b0, 0x9bf219b0, 0x9bf219b0, 0x9bf219b0, 0x9bf219b0, 0x9bf219b0, 0x9bf219b0, 
  0xFF, 0xFF, 0xFF, 0xFF, 0xFF, 0xFF, 0xFF, 0xFF, 0xFF, 0xFF, 0xFF, 0xFF, 
  0xFF, 0xFF, 0xFF, 0xFF, 0xFF, 0xFF, 0xFF, 0xFF, };
